<svg viewBox="0 0 140 140" width="140" height="140" fill="none" xmlns="http://www.w3.org/2000/svg">
  <!-- Bicep curl — front view, standing, one arm curling KB up -->
  <circle cx="70" cy="8" r="7" stroke="#e0e0e0" stroke-width="2.5"/>
  <line x1="70" y1="15" x2="70" y2="45" stroke="#e0e0e0" stroke-width="2.5" stroke-linecap="round"/>
  <line x1="70" y1="45" x2="62" y2="67" stroke="#e0e0e0" stroke-width="2.5" stroke-linecap="round"/>
  <line x1="62" y1="67" x2="62" y2="89" stroke="#e0e0e0" stroke-width="2.5" stroke-linecap="round"/>
  <line x1="70" y1="45" x2="78" y2="67" stroke="#e0e0e0" stroke-width="2.5" stroke-linecap="round"/>
  <line x1="78" y1="67" x2="78" y2="89" stroke="#e0e0e0" stroke-width="2.5" stroke-linecap="round"/>
  <line x1="70" y1="26" x2="56" y2="38" stroke="#e0e0e0" stroke-width="2.5" stroke-linecap="round"/>
  <line x1="56" y1="38" x2="54" y2="54" stroke="#e0e0e0" stroke-width="2.5" stroke-linecap="round"/>
  <line x1="70" y1="26" x2="84" y2="36" stroke="#e0e0e0" stroke-width="2.5" stroke-linecap="round"/>
  <line x1="84" y1="36" x2="88" y2="22" stroke="#e0e0e0" stroke-width="2.5" stroke-linecap="round"/>
  <circle cx="88" cy="16" r="5" fill="#ff6b35" opacity=".85"/>
  <path d="M85,11 Q83,6 88,5 Q93,6 91,11" stroke="#ff6b35" stroke-width="1.5" fill="none"/>
  <line x1="62" y1="89" x2="62" y2="92" stroke="#e0e0e0" stroke-width="3" stroke-linecap="round"/>
  <line x1="78" y1="89" x2="78" y2="92" stroke="#e0e0e0" stroke-width="3" stroke-linecap="round"/>
</svg>
