<svg viewBox="0 0 140 140" width="140" height="140" fill="none" xmlns="http://www.w3.org/2000/svg">
  <!-- Deadlift — side view, hips hinged, KB hanging low -->
  <circle cx="52" cy="14" r="7" stroke="#e0e0e0" stroke-width="2.5"/>
  <line x1="55" y1="20" x2="66" y2="48" stroke="#e0e0e0" stroke-width="2.5" stroke-linecap="round"/>
  <line x1="66" y1="48" x2="58" y2="68" stroke="#e0e0e0" stroke-width="2.5" stroke-linecap="round"/>
  <line x1="58" y1="68" x2="55" y2="90" stroke="#e0e0e0" stroke-width="2.5" stroke-linecap="round"/>
  <line x1="66" y1="48" x2="74" y2="68" stroke="#e0e0e0" stroke-width="2.5" stroke-linecap="round"/>
  <line x1="74" y1="68" x2="77" y2="90" stroke="#e0e0e0" stroke-width="2.5" stroke-linecap="round"/>
  <line x1="59" y1="30" x2="48" y2="46" stroke="#e0e0e0" stroke-width="2.5" stroke-linecap="round"/>
  <line x1="48" y1="46" x2="48" y2="62" stroke="#e0e0e0" stroke-width="2.5" stroke-linecap="round"/>
  <line x1="59" y1="30" x2="70" y2="46" stroke="#e0e0e0" stroke-width="2.5" stroke-linecap="round"/>
  <line x1="70" y1="46" x2="70" y2="62" stroke="#e0e0e0" stroke-width="2.5" stroke-linecap="round"/>
  <circle cx="59" cy="68" r="6" fill="#ff6b35" opacity=".85"/>
  <path d="M56,62 Q54,57 59,56 Q64,57 62,62" stroke="#ff6b35" stroke-width="1.5" fill="none"/>
  <line x1="55" y1="90" x2="55" y2="93" stroke="#e0e0e0" stroke-width="3" stroke-linecap="round"/>
  <line x1="77" y1="90" x2="77" y2="93" stroke="#e0e0e0" stroke-width="3" stroke-linecap="round"/>
</svg>
