<svg viewBox="0 0 140 140" width="140" height="140" fill="none" xmlns="http://www.w3.org/2000/svg">
  <!-- Overhead press — front view, standing tall, one arm pressing KB overhead -->
  <circle cx="70" cy="10" r="7" stroke="#e0e0e0" stroke-width="2.5"/>
  <line x1="70" y1="17" x2="70" y2="47" stroke="#e0e0e0" stroke-width="2.5" stroke-linecap="round"/>
  <line x1="70" y1="47" x2="62" y2="69" stroke="#e0e0e0" stroke-width="2.5" stroke-linecap="round"/>
  <line x1="62" y1="69" x2="62" y2="91" stroke="#e0e0e0" stroke-width="2.5" stroke-linecap="round"/>
  <line x1="70" y1="47" x2="78" y2="69" stroke="#e0e0e0" stroke-width="2.5" stroke-linecap="round"/>
  <line x1="78" y1="69" x2="78" y2="91" stroke="#e0e0e0" stroke-width="2.5" stroke-linecap="round"/>
  <line x1="70" y1="28" x2="56" y2="40" stroke="#e0e0e0" stroke-width="2.5" stroke-linecap="round"/>
  <line x1="56" y1="40" x2="54" y2="56" stroke="#e0e0e0" stroke-width="2.5" stroke-linecap="round"/>
  <line x1="70" y1="28" x2="84" y2="18" stroke="#e0e0e0" stroke-width="2.5" stroke-linecap="round"/>
  <line x1="84" y1="18" x2="86" y2="2" stroke="#e0e0e0" stroke-width="2.5" stroke-linecap="round"/>
  <circle cx="86" cy="2" r="5" fill="#ff6b35" opacity=".85"/>
  <path d="M83,-3 Q81,-8 86,-9 Q91,-8 89,-3" stroke="#ff6b35" stroke-width="1.5" fill="none"/>
  <line x1="62" y1="91" x2="62" y2="94" stroke="#e0e0e0" stroke-width="3" stroke-linecap="round"/>
  <line x1="78" y1="91" x2="78" y2="94" stroke="#e0e0e0" stroke-width="3" stroke-linecap="round"/>
</svg>
