<svg viewBox="0 0 140 140" width="140" height="140" fill="none" xmlns="http://www.w3.org/2000/svg">
  <!-- Swing — side view, hips hinged back, arms swinging KB forward-down -->
  <circle cx="58" cy="12" r="7" stroke="#e0e0e0" stroke-width="2.5"/>
  <line x1="58" y1="19" x2="62" y2="49" stroke="#e0e0e0" stroke-width="2.5" stroke-linecap="round"/>
  <line x1="62" y1="49" x2="50" y2="49" stroke="#e0e0e0" stroke-width="2.5" stroke-linecap="round"/>
  <line x1="62" y1="49" x2="52" y2="68" stroke="#e0e0e0" stroke-width="2.5" stroke-linecap="round"/>
  <line x1="52" y1="68" x2="48" y2="90" stroke="#e0e0e0" stroke-width="2.5" stroke-linecap="round"/>
  <line x1="62" y1="49" x2="72" y2="68" stroke="#e0e0e0" stroke-width="2.5" stroke-linecap="round"/>
  <line x1="72" y1="68" x2="75" y2="90" stroke="#e0e0e0" stroke-width="2.5" stroke-linecap="round"/>
  <line x1="60" y1="30" x2="46" y2="42" stroke="#e0e0e0" stroke-width="2.5" stroke-linecap="round"/>
  <line x1="46" y1="42" x2="42" y2="58" stroke="#e0e0e0" stroke-width="2.5" stroke-linecap="round"/>
  <line x1="60" y1="30" x2="74" y2="42" stroke="#e0e0e0" stroke-width="2.5" stroke-linecap="round"/>
  <line x1="74" y1="42" x2="78" y2="58" stroke="#e0e0e0" stroke-width="2.5" stroke-linecap="round"/>
  <circle cx="60" cy="64" r="6" fill="#ff6b35" opacity=".85"/>
  <path d="M57,58 Q55,53 60,52 Q65,53 63,58" stroke="#ff6b35" stroke-width="1.5" fill="none"/>
  <line x1="48" y1="90" x2="48" y2="93" stroke="#e0e0e0" stroke-width="3" stroke-linecap="round"/>
  <line x1="75" y1="90" x2="75" y2="93" stroke="#e0e0e0" stroke-width="3" stroke-linecap="round"/>
</svg>
