<svg xmlns="http://www.w3.org/2000/svg" viewBox="0 0 200 450">
  <defs>
    <style>
      .muscle { cursor:pointer; transition:fill .2s, opacity .2s; }
      .outline { fill:#1a1a24; stroke:#2a2a3e; stroke-width:0.8; }
      .muscle-off { fill:#24243a; stroke:#2a2a3e; stroke-width:0.7; }
      .muscle-pri { fill:#ff6b35; stroke:#e55a2b; stroke-width:0.6; }
      .muscle-sec { fill:#ff6b3566; stroke:#ff6b3544; stroke-width:0.6; }
      .sep { fill:none; stroke:#1a1a24; stroke-width:0.5; }
    </style>
  </defs>

  <!-- Background -->
  <rect width="200" height="450" fill="#0f0f13"/>

  <!-- Head -->
  <ellipse cx="100" cy="38" rx="17" ry="21" class="outline"/>
  <!-- Neck -->
  <rect x="91" y="57" width="18" height="13" rx="4" class="outline"/>

  <!-- Torso silhouette -->
  <path class="outline" d="M65,70 Q58,72 53,82 L47,120 Q45,145 50,172 L56,195 Q62,208 70,216 L80,222 Q90,226 100,226 Q110,226 120,222 L130,216 Q138,208 144,195 L150,172 Q155,145 153,120 L147,82 Q142,72 135,70 Z"/>

  <!-- Arms -->
  <path class="outline" d="M53,82 Q44,80 38,88 L32,108 Q28,128 28,148 L30,168 Q32,182 34,196 L36,210 Q37,224 36,238 L34,252 Q32,260 34,264 L40,264 Q42,260 42,252 L44,238 Q46,224 46,210 L46,196 Q46,182 46,168 L48,148 Q48,128 50,112 Z"/>
  <path class="outline" d="M147,82 Q156,80 162,88 L168,108 Q172,128 172,148 L170,168 Q168,182 166,196 L164,210 Q163,224 164,238 L166,252 Q168,260 166,264 L160,264 Q158,260 158,252 L156,238 Q154,224 154,210 L154,196 Q154,182 154,168 L152,148 Q152,128 150,112 Z"/>

  <!-- Legs -->
  <path class="outline" d="M74,218 L68,250 Q64,280 64,310 L64,340 Q64,360 66,378 L68,400 Q68,420 66,434 L64,442 L88,442 L86,434 Q84,420 84,400 L86,378 Q88,360 88,340 L88,310 Q88,280 86,250 L84,230 Q94,226 100,226"/>
  <path class="outline" d="M126,218 L132,250 Q136,280 136,310 L136,340 Q136,360 134,378 L132,400 Q132,420 134,434 L136,442 L112,442 L114,434 Q116,420 116,400 L114,378 Q112,360 112,340 L112,310 Q112,280 114,250 L116,230 Q106,226 100,226"/>

  <!-- ===== MUSCLES ===== -->

  <!-- Traps (secondary) -->
  <path id="back-traps" data-muscle="traps" class="muscle muscle-sec" d="M80,68 L65,74 Q58,80 56,90 L68,96 Q80,86 92,80 L97,74 Z"/>
  <path id="back-traps-r" data-muscle="traps" class="muscle muscle-sec" d="M120,68 L135,74 Q142,80 144,90 L132,96 Q120,86 108,80 L103,74 Z"/>

  <!-- Rear Delts (default) -->
  <path id="back-reardelt-l" data-muscle="shoulders" class="muscle muscle-off" d="M65,70 Q56,74 50,84 L44,96 Q42,100 44,104 L50,100 Q54,94 58,88 L65,78 Z"/>
  <path id="back-reardelt-r" data-muscle="shoulders" class="muscle muscle-off" d="M135,70 Q144,74 150,84 L156,96 Q158,100 156,104 L150,100 Q146,94 142,88 L135,78 Z"/>

  <!-- Lats (primary) -->
  <path id="back-lat-l" data-muscle="lats" class="muscle muscle-pri" d="M66,96 L54,110 Q50,128 50,148 L52,168 Q56,180 62,188 L74,192 Q82,186 86,176 L88,160 Q88,140 86,122 L80,104 Z"/>
  <path id="back-lat-r" data-muscle="lats" class="muscle muscle-pri" d="M134,96 L146,110 Q150,128 150,148 L148,168 Q144,180 138,188 L126,192 Q118,186 114,176 L112,160 Q112,140 114,122 L120,104 Z"/>

  <!-- Lower Back (default) -->
  <path id="back-lowerback" data-muscle="lower_back" class="muscle muscle-off" d="M86,130 L86,200 Q92,212 100,214 Q108,212 114,200 L114,130 Q108,124 100,122 Q92,124 86,130 Z"/>
  <!-- Spine line -->
  <line x1="100" y1="122" x2="100" y2="214" class="sep" stroke-width="0.4"/>
  <!-- Erector spinae -->
  <path d="M94,130 Q94,165 96,200" class="sep"/>
  <path d="M106,130 Q106,165 104,200" class="sep"/>

  <!-- Triceps (default) -->
  <path id="back-tricep-l" data-muscle="triceps" class="muscle muscle-off" d="M48,100 L42,114 Q38,130 38,148 L40,160 Q44,164 48,160 L50,148 Q52,130 52,114 Z"/>
  <path id="back-tricep-r" data-muscle="triceps" class="muscle muscle-off" d="M152,100 L158,114 Q162,130 162,148 L160,160 Q156,164 152,160 L150,148 Q148,130 148,114 Z"/>

  <!-- Forearms (default) -->
  <path id="back-forearm-l" data-muscle="forearms" class="muscle muscle-off" d="M40,162 L36,182 Q34,202 34,222 L36,240 Q38,244 42,240 L44,222 Q46,202 46,182 L48,162 Z"/>
  <path id="back-forearm-r" data-muscle="forearms" class="muscle muscle-off" d="M160,162 L164,182 Q166,202 166,222 L164,240 Q162,244 158,240 L156,222 Q154,202 154,182 L152,162 Z"/>

  <!-- Glutes (primary) -->
  <path id="back-glute-l" data-muscle="glutes" class="muscle muscle-pri" d="M72,208 L66,222 Q64,236 68,248 L78,254 Q88,252 94,244 L98,232 Q98,220 94,212 L86,208 Z"/>
  <path id="back-glute-r" data-muscle="glutes" class="muscle muscle-pri" d="M128,208 L134,222 Q136,236 132,248 L122,254 Q112,252 106,244 L102,232 Q102,220 106,212 L114,208 Z"/>

  <!-- Hamstrings (secondary) -->
  <path id="back-ham-l" data-muscle="hamstrings" class="muscle muscle-sec" d="M68,256 L66,280 Q64,308 64,330 L66,348 Q70,354 76,352 L84,348 Q88,344 88,330 L88,308 Q86,280 84,260 L80,254 Z"/>
  <path id="back-ham-r" data-muscle="hamstrings" class="muscle muscle-sec" d="M132,256 L134,280 Q136,308 136,330 L134,348 Q130,354 124,352 L116,348 Q112,344 112,330 L112,308 Q114,280 116,260 L120,254 Z"/>
  <!-- Hamstring separation -->
  <path d="M76,258 Q76,290 76,330 Q76,344 76,350" class="sep"/>
  <path d="M124,258 Q124,290 124,330 Q124,344 124,350" class="sep"/>

  <!-- Calves (default) -->
  <path id="back-calf-l" data-muscle="calves" class="muscle muscle-off" d="M66,356 L64,378 Q64,400 66,416 L68,426 Q72,432 76,432 L82,430 Q86,426 86,416 L86,400 Q86,382 84,366 L82,356 Z"/>
  <path id="back-calf-r" data-muscle="calves" class="muscle muscle-off" d="M134,356 L136,378 Q136,400 134,416 L132,426 Q128,432 124,432 L118,430 Q114,426 114,416 L114,400 Q114,382 116,366 L118,356 Z"/>
  <!-- Calf head separation -->
  <path d="M75,360 Q75,390 74,420" class="sep" stroke-width="0.4"/>
  <path d="M125,360 Q125,390 126,420" class="sep" stroke-width="0.4"/>
</svg>